<?xml version="1.0"?>
<!-- Generated by SVGo (float) -->
<svg width="675.00" height="384.00"
     xmlns="http://www.w3.org/2000/svg"
     xmlns:xlink="http://www.w3.org/1999/xlink">
<defs>
<filter id="dsFilterNoBlur" height="150%" width="150%" >
<feOffset in="SourceGraphic" result="offOut"  dx="3" dy="3" />
<feColorMatrix in="offOut" result="matrixOut"  type="matrix" values="0.2 0 0 0 0 0 0.2 0 0 0 0 0 0.2 0 0 0 0 0 1 0 " />
<feBlend in="SourceGraphic" in2="matrixOut"  mode="normal" />
</filter>
<filter id="dsFilter" height="150%" width="150%" >
<feOffset in="SourceGraphic" result="offOut"  dx="3" dy="3" />
<feColorMatrix in="offOut" result="matrixOut"  type="matrix" values="0.2 0 0 0 0 0 0.2 0 0 0 0 0 0.2 0 0 0 0 0 1 0 " />
<feGaussianBlur in="matrixOut" result="blurOut"  stdDeviation="3 3" />
<feBlend in="SourceGraphic" in2="blurOut"  mode="normal" />
</filter>
<marker id="iPointer" refX="5.00" refY="5.00" markerWidth="8.00" markerHeight="7.00" markerUnits="strokeWidth" orient="auto" viewBox="0 0 10 10" >
<path d="M 10 0 L 10 10 L 0 5 z" />
</marker>
<marker id="Pointer" refX="5.00" refY="5.00" markerWidth="8.00" markerHeight="7.00" markerUnits="strokeWidth" orient="auto" viewBox="0 0 10 10" >
<path d="M 0 0 L 10 5 L 0 10 z" />
</marker>
</defs>
<text x="17.10" y="12.80" fill="black" font-family="Consolas,Monaco,Anonymous Pro,Anonymous,Bitstream Sans Mono,monospace" stroke="none" font-size="15.200000px" >Rectangles:</text>
<rect x="22.50" y="40.00" width="54.00" height="48.00" fill="white" stroke="black" stroke-width="2" filter="url(#dsFilter)" />
<path d="M 130.500000 50.000000 Q 130.500000 40.000000 140.500000 40.000000 L 174.500000 40.000000 Q 184.500000 40.000000 184.500000 50.000000 L 184.500000 78.000000 Q 184.500000 88.000000 174.500000 88.000000 L 140.500000 88.000000 Q 130.500000 88.000000 130.500000 78.000000 Z" fill="white" stroke="black" stroke-width="2" filter="url(#dsFilter)" />
<path d="M 238.500000 40.000000 L 282.500000 40.000000 Q 292.500000 40.000000 292.500000 50.000000 L 292.500000 88.000000 L 248.500000 88.000000 Q 238.500000 88.000000 238.500000 78.000000 Z" fill="white" stroke="black" stroke-width="2" filter="url(#dsFilter)" />
<text x="17.10" y="140.80" fill="black" font-family="Consolas,Monaco,Anonymous Pro,Anonymous,Bitstream Sans Mono,monospace" stroke="none" font-size="15.200000px" >Lines:</text>
<line x1="22.50" y1="168.00" x2="85.50" y2="168.00" fill="none" stroke="black" stroke-width="2" />
<line x1="130.50" y1="168.00" x2="130.50" y2="216.00" fill="none" stroke="black" stroke-width="2" />
<line x1="166.50" y1="168.00" x2="166.50" y2="216.00" fill="none" stroke="black" stroke-width="2" marker-start="url(#iPointer)" />
<line x1="202.50" y1="168.00" x2="202.50" y2="216.00" fill="none" stroke="black" stroke-width="2" marker-end="url(#Pointer)" />
<line x1="238.50" y1="168.00" x2="238.50" y2="216.00" fill="none" stroke="black" stroke-width="2" marker-start="url(#iPointer)" />
<line x1="319.50" y1="168.00" x2="292.50" y2="216.00" fill="none" stroke="black" stroke-width="2" />
<line x1="373.50" y1="168.00" x2="400.50" y2="216.00" fill="none" stroke="black" stroke-width="2" marker-start="url(#iPointer)" marker-end="url(#Pointer)" />
<line x1="445.50" y1="168.00" x2="508.50" y2="168.00" fill="none" stroke="black" stroke-width="2" stroke-dasharray="5 5" />
<line x1="553.50" y1="168.00" x2="553.50" y2="216.00" fill="none" stroke="black" stroke-width="2" stroke-dasharray="5 5" />
<line x1="589.50" y1="168.00" x2="589.50" y2="216.00" fill="none" stroke="black" stroke-width="2" marker-start="url(#iPointer)" stroke-dasharray="5 5" />
<line x1="625.50" y1="168.00" x2="625.50" y2="216.00" fill="none" stroke="black" stroke-width="2" marker-end="url(#Pointer)" stroke-dasharray="5 5" />
<line x1="661.50" y1="168.00" x2="661.50" y2="216.00" fill="none" stroke="black" stroke-width="2" marker-start="url(#iPointer)" stroke-dasharray="5 5" />
<line x1="22.50" y1="184.00" x2="76.50" y2="184.00" fill="none" stroke="black" stroke-width="2" marker-end="url(#Pointer)" />
<line x1="445.50" y1="184.00" x2="499.50" y2="184.00" fill="none" stroke="black" stroke-width="2" marker-end="url(#Pointer)" stroke-dasharray="5 5" />
<line x1="22.50" y1="200.00" x2="85.50" y2="200.00" fill="none" stroke="black" stroke-width="2" marker-start="url(#iPointer)" />
<line x1="445.50" y1="200.00" x2="508.50" y2="200.00" fill="none" stroke="black" stroke-width="2" marker-start="url(#iPointer)" stroke-dasharray="5 5" />
<line x1="22.50" y1="216.00" x2="76.50" y2="216.00" fill="none" stroke="black" stroke-width="2" marker-start="url(#iPointer)" marker-end="url(#Pointer)" />
<line x1="445.50" y1="216.00" x2="499.50" y2="216.00" fill="none" stroke="black" stroke-width="2" marker-start="url(#iPointer)" marker-end="url(#Pointer)" stroke-dasharray="5 5" />
<text x="17.10" y="268.80" fill="black" font-family="Consolas,Monaco,Anonymous Pro,Anonymous,Bitstream Sans Mono,monospace" stroke="none" font-size="15.200000px" >Polylines:</text>
<text x="368.10" y="268.80" fill="black" font-family="Consolas,Monaco,Anonymous Pro,Anonymous,Bitstream Sans Mono,monospace" stroke="none" font-size="15.200000px" >Polygons:</text>
<polyline points="22.50,296.00 76.50,296.00 76.50,360.00 130.50,360.00 130.50,328.00 184.50,328.00" fill="none" stroke="black" stroke-width="2" marker-end="url(#Pointer)" />
<polygon points="409.50,296.00 445.50,296.00 445.50,328.00 481.50,328.00 481.50,360.00 373.50,360.00 373.50,328.00 409.50,328.00" fill="none" stroke="black" stroke-width="2" />
<polygon points="535.50,296.00 661.50,296.00 661.50,328.00 571.50,328.00 571.50,360.00 535.50,360.00" fill="none" stroke="black" stroke-width="2" stroke-dasharray="5 5" />
</svg>
