<?xml version="1.0"?>
<!-- Generated by SVGo (float) -->
<svg width="279.00" height="224.00"
     xmlns="http://www.w3.org/2000/svg"
     xmlns:xlink="http://www.w3.org/1999/xlink">
<defs>
<filter id="dsFilterNoBlur" height="150%" width="150%" >
<feOffset in="SourceGraphic" result="offOut"  dx="3" dy="3" />
<feColorMatrix in="offOut" result="matrixOut"  type="matrix" values="0.2 0 0 0 0 0 0.2 0 0 0 0 0 0.2 0 0 0 0 0 1 0 " />
<feBlend in="SourceGraphic" in2="matrixOut"  mode="normal" />
</filter>
<filter id="dsFilter" height="150%" width="150%" >
<feOffset in="SourceGraphic" result="offOut"  dx="3" dy="3" />
<feColorMatrix in="offOut" result="matrixOut"  type="matrix" values="0.2 0 0 0 0 0 0.2 0 0 0 0 0 0.2 0 0 0 0 0 1 0 " />
<feGaussianBlur in="matrixOut" result="blurOut"  stdDeviation="3 3" />
<feBlend in="SourceGraphic" in2="blurOut"  mode="normal" />
</filter>
<marker id="iPointer" refX="5.00" refY="5.00" markerWidth="8.00" markerHeight="7.00" markerUnits="strokeWidth" orient="auto" viewBox="0 0 10 10" >
<path d="M 10 0 L 10 10 L 0 5 z" />
</marker>
<marker id="Pointer" refX="5.00" refY="5.00" markerWidth="8.00" markerHeight="7.00" markerUnits="strokeWidth" orient="auto" viewBox="0 0 10 10" >
<path d="M 0 0 L 10 5 L 0 10 z" />
</marker>
</defs>
<rect x="4.50" y="24.00" width="261.00" height="176.00" fill="white" stroke="black" stroke-width="2" filter="url(#dsFilter)" />
<path d="M 22.500000 82.000000 Q 22.500000 72.000000 32.500000 72.000000 L 48.500000 72.000000 Q 58.500000 72.000000 58.500000 82.000000 L 58.500000 94.000000 Q 58.500000 104.000000 48.500000 104.000000 L 32.500000 104.000000 Q 22.500000 104.000000 22.500000 94.000000 Z" fill="white" stroke="black" stroke-width="2" filter="url(#dsFilter)" />
<text x="26.10" y="92.80" fill="black" font-family="Consolas,Monaco,Anonymous Pro,Anonymous,Bitstream Sans Mono,monospace" stroke="none" font-size="15.200000px" >foo</text>
<path d="M 130.500000 82.000000 Q 130.500000 72.000000 140.500000 72.000000 L 166.500000 72.000000 L 166.500000 94.000000 Q 166.500000 104.000000 156.500000 104.000000 L 130.500000 104.000000 Z" fill="white" stroke="black" stroke-width="2" filter="url(#dsFilter)" />
<text x="134.10" y="92.80" fill="black" font-family="Consolas,Monaco,Anonymous Pro,Anonymous,Bitstream Sans Mono,monospace" stroke="none" font-size="15.200000px" >bar</text>
<line x1="76.50" y1="88.00" x2="112.50" y2="88.00" fill="none" stroke="black" stroke-width="2" marker-end="url(#Pointer)" stroke-dasharray="5 5" />
<polyline points="184.50,88.00 220.50,88.00 220.50,120.00" fill="none" stroke="black" stroke-width="2" />
<rect x="202.50" y="136.00" width="36.00" height="32.00" fill="white" stroke="black" stroke-width="2" filter="url(#dsFilter)" />
<text x="206.10" y="156.80" fill="black" font-family="Consolas,Monaco,Anonymous Pro,Anonymous,Bitstream Sans Mono,monospace" stroke="none" font-size="15.200000px" >baz</text>
</svg>
